<?xml version="1.0" encoding="utf-8"?>
<!-- Svg Vector Icons : http://www.onlinewebfonts.com/icon -->
<!DOCTYPE svg PUBLIC "-//W3C//DTD SVG 1.1//EN" "http://www.w3.org/Graphics/SVG/1.1/DTD/svg11.dtd">
<svg version="1.1" xmlns="http://www.w3.org/2000/svg" xmlns:xlink="http://www.w3.org/1999/xlink" x="0px" y="0px" viewBox="0 0 1000 1000" enable-background="new 0 0 1000 1000" xml:space="preserve">
<metadata> Svg Vector Icons : http://www.onlinewebfonts.com/icon </metadata>
<g><g transform="translate(0.000000,511.000000) scale(0.100000,-0.100000)"><path d="M4767,4977.3c-161-53.6-334.7-212.1-419-375.6c-125.2-240.1-79.2-610.6,99.6-799.7c30.6-33.2,51.1-61.3,43.4-66.4c-5.1-5.1-99.6-28.1-206.9-53.7c-327-74.1-694.9-229.9-983.6-413.9l-132.8-84.3l-15.3,94.5c-69,419-406.2,702.6-792,661.7c-625.9-63.9-896.8-792-459.9-1234c127.7-130.3,255.5-194.2,452.2-227.4l94.5-15.3l-84.3-132.9c-184-288.7-339.8-656.6-413.9-983.6c-25.5-107.3-48.5-201.8-53.7-207c-5.1-7.7-33.2,12.8-66.4,43.4c-189.1,178.8-559.5,224.8-799.7,99.7c-352.6-181.4-505.9-587.6-355.1-947.9C735.4,192,901.5,25.9,1052.2-40.5c247.8-109.9,595.3-61.3,776.7,109.9c33.2,30.6,61.3,51.1,66.4,43.4c2.6-5.1,33.2-117.5,66.4-250.4c74.1-301.5,201.8-608.1,360.2-868.7l122.6-204.4l-104.7-15.3c-508.4-84.3-789.5-585.1-585.1-1039.8c63.9-140.5,217.2-293.8,362.8-362.8c173.7-79.2,457.3-74.1,628.5,15.3c224.8,117.5,360.2,314.2,406.2,590.2l15.3,97.1l81.7-53.6c46-30.7,135.4-84.3,201.8-122.6c66.4-38.3,122.6-79.2,120.1-94.5c0-12.8-278.5-508.4-620.8-1098.6l-620.8-1073l-350-7.7l-347.5-7.7v-201.8V-4790h3372.4H8377v204.4v201.8l-347.5,7.7l-350,7.7l-620.8,1073c-342.4,590.2-620.9,1088.4-623.4,1106.3c0,15.3,10.2,30.7,20.4,30.7c12.8,0,102.2,51.1,199.3,112.4l176.3,115l40.9-158.4c66.4-270.8,173.8-411.3,406.2-531.4c155.8-81.7,447.1-84.3,613.2-7.7c145.6,69,298.9,222.3,367.9,367.9c76.7,166.1,74.1,457.3-7.7,613.2c-120.1,232.5-260.6,339.8-531.4,408.8l-160.9,38.3l79.2,115C7820.1-817.2,8039.8-278.1,8085.8,8c17.9,120.1,33.2,130.3,97.1,58.8c84.3-92,296.4-166.1,475.2-166.1c286.2,0,521.2,143.1,659.2,406.2c53.7,104.8,66.4,163.5,66.4,319.4s-12.8,214.6-66.4,319.4c-79.2,153.3-196.7,268.3-352.6,347.5c-171.2,86.9-449.6,84.3-628.5-7.7c-69-38.3-143.1-86.9-161-107.3c-53.6-63.9-71.5-48.5-89.4,69c-46,283.6-265.7,822.7-447.1,1090.9c-84.3,125.2-74.1,145.6,74.1,153.3c97.1,2.6,283.6,94.5,378.1,186.5c153.3,145.6,219.7,309.1,222.3,528.9c0,227.4-58.8,370.5-206.9,521.2c-431.8,431.8-1147.1,181.4-1249.3-436.9l-15.3-104.7L6637.2,3309c-260.6,158.4-567.2,286.2-868.7,360.2c-132.8,33.2-245.3,63.9-250.4,66.4c-7.7,5.1,12.8,33.2,43.4,66.4c171.2,181.4,219.7,528.9,109.9,776.7c-66.4,153.3-232.5,316.8-378.1,378.1C5145.1,5018.2,4912.6,5028.4,4767,4977.3z M4800.2,2465.8c0-697.5-7.7-894.2-30.7-894.2c-17.9,0-92-28.1-163.5-61.3l-130.3-61.3l-631,631l-631.1,631.1l186.5,135.4c373,270.8,950.4,490.5,1343.9,511l56.2,2.6V2465.8z M5490,3324.3c401.1-71.5,804.8-247.8,1142-495.6l163.5-117.5l-631.1-631.1l-631-631l-130.3,61.3c-71.5,33.2-145.6,61.3-160.9,61.3c-25.5,0-33.2,196.7-33.2,894.2c0,835.4,2.6,894.2,46,894.2C5278,3357.5,5385.3,3342.2,5490,3324.3z M4120.6,1024.9c-33.2-71.5-61.3-145.6-61.3-161c0-25.6-196.7-33.2-896.8-33.2h-896.8l17.9,135.4c53.7,424.1,247.8,914.6,500.8,1264.7l135.4,186.5l631.1-631.1l631-631.1L4120.6,1024.9z M7293.7,2128.6c214.6-316.8,383.2-771.6,431.8-1162.5l17.9-135.4h-896.8c-700,0-896.7,7.7-896.7,33.2c0,15.3-28.1,89.4-61.3,158.4l-61.3,127.7l631.1,633.6l628.5,631.1l46-56.2C7155.8,2325.3,7229.9,2223.1,7293.7,2128.6z M5229.4,1147.5c449.7-186.5,449.7-855.9,0-1042.4c-196.7-84.3-465-35.8-618.3,107.3c-214.6,201.8-224.8,587.6-20.4,807.3C4738.9,1178.2,5022.5,1234.4,5229.4,1147.5z M4059.3,391.3c0-17.9,28.1-92,61.3-163.5l61.3-130.3l-631-631.1l-631.1-631.1l-117.5,163.5c-247.8,337.2-424.1,740.9-495.6,1142c-17.9,104.8-33.2,212.1-35.8,237.6c0,40.9,58.8,43.4,894.2,43.4C3862.6,422,4059.3,414.3,4059.3,391.3z M7725.5,289.1c-53.6-426.7-247.8-917.2-500.8-1267.2l-135.4-186.5l-631,631.1L5827.3,97.5l61.3,130.3c33.2,71.5,61.3,145.6,61.3,163.5c0,23,196.7,30.7,896.7,30.7h896.8L7725.5,289.1z M4769.6-319c23,0,30.7-196.7,30.7-896.8v-896.8l-132.9,17.9c-426.7,53.6-917.2,247.8-1267.2,500.8l-186.5,135.4l631.1,631.1l631,631.1l130.3-61.3C4677.6-290.9,4751.7-319,4769.6-319z M6736.8-1501.9c-401.1-314.3-912.1-531.4-1392.4-592.7l-135.4-17.9v896.8c0,700,7.7,896.8,33.2,896.8c15.3,0,89.4,28.1,158.4,61.3l127.7,61.3L6162-827.4l631.1-628.5L6736.8-1501.9z M4263.7-2421.6c120.1-30.7,222.3-58.8,227.4-61.3c7.7-5.1-12.8-33.2-40.9-66.4c-183.9-199.3-229.9-554.4-104.7-797.1c79.2-153.3,196.7-268.3,352.6-347.5c168.6-86.9,449.6-84.3,625.9,7.7c263.1,137.9,406.2,370.5,406.2,659.2c0,178.8-66.4,370.5-168.6,477.8c-30.7,33.2-51.1,61.3-43.4,66.4c12.8,7.7,459.9,122.6,500.8,127.7c17.9,2.5,293.8-449.6,615.7-1004.1l582.5-1009.2l-1106.3-7.7c-608.1-2.6-1604.4-2.6-2212.5,0l-1106.3,7.7l585.1,1016.8c467.5,809.9,595.3,1014.3,628.5,1001.5C4028.6-2360.3,4143.6-2391,4263.7-2421.6z"/></g></g>
</svg>